<?xml version="1.0" encoding="utf-8"?>
<!-- Generator: Adobe Illustrator 19.2.0, SVG Export Plug-In . SVG Version: 6.00 Build 0)  -->
<svg version="1.1" id="Layer_1" xmlns="http://www.w3.org/2000/svg" xmlns:xlink="http://www.w3.org/1999/xlink" x="0px" y="0px"
	 viewBox="0 0 612 792" style="enable-background:new 0 0 612 792;" xml:space="preserve">
<style type="text/css">
	.st0{fill:#FFFFFF;}
</style>
<g>
	<path class="st0" d="M497,257.1C445.6,213,379,186.2,306,186.2c-162.2,0-293.8,131.5-293.8,293.8c0,4.4,0.4,45,0.6,49.3v43.9h585.8
		v-40.7l0.6-3.2c0.2-4.4,0.6-44.9,0.6-49.3C599.8,336,497,257.1,497,257.1L497,257.1z M83.7,529.4c-0.2-2.7,0.1-41.8-0.1-44.4h60.3
		v-19.5h-56c0-0.2-4.2,0.1-4.2,0.1c2.4-50.5,21.6-100.9,57.9-140.5l1.5-1.6l2.7,2.3l40.1,40.2l12.6-12.6l-42.6-42.6
		c38.6-35.3,87.5-55.5,139.7-57.8h3c0,0,1.3-0.1,1.2,0.7v59.4h16.1V253c7.9,0.3,15.8,1.3,23.6,2.5c44.8,5.9,86.5,25.2,120.3,56
		L417,354.1l11.8,11.9l40.9-40.9l2.2-1.8l1.9,2.6c35.3,38.6,55.5,87.4,57.9,139.7h-60.2V485l60.4-0.1c0,0,0.1,41.8-0.2,44.3
		L83.7,529.4z M385,389c0,0-95.5,29.3-113.9,47.6c-18.3,18.4-18.3,48,0.1,66.4c18.3,18.3,47.9,18.3,66.3,0
		C355.8,484.5,385,389,385,389L385,389z M385,389"/>
</g>
</svg>
