<?xml version="1.0" encoding="utf-8"?>
<!-- Generator: Adobe Illustrator 19.2.0, SVG Export Plug-In . SVG Version: 6.00 Build 0)  -->
<svg version="1.1" id="Layer_1" xmlns="http://www.w3.org/2000/svg" xmlns:xlink="http://www.w3.org/1999/xlink" x="0px" y="0px"
	 viewBox="0 0 612 792" style="enable-background:new 0 0 612 792;" xml:space="preserve">
<style type="text/css">
	.st0{fill:#FFFFFF;}
	.st1{fill:none;}
</style>
<path class="st0" d="M479.3,449.2c-30.1,0-57.3,11.8-77.6,30.8l-75-56.2v-85.9c53.3-9.3,93.9-55.7,93.9-111.6
	c0-62.6-50.8-113.4-113.4-113.4c-62.6,0-113.4,50.8-113.4,113.4c0,55.9,40.6,102.3,93.9,111.6v85.6L207,481.4
	c-14.8-14.5-33.7-25-54.7-29.5C73.7,435.1,5,499.8,14.8,577.4c6.4,50.6,47.2,91.4,97.8,97.7c77.6,9.8,142.2-58.9,125.5-137.5
	c-1.8-8.6-4.7-16.7-8.3-24.4l77.2-55.4l71.3,53.5c-7.9,15.4-12.4,32.8-12.4,51.3c0,62.6,50.8,113.4,113.4,113.4
	c62.6,0,113.4-50.8,113.4-113.4C592.7,500,541.9,449.2,479.3,449.2L479.3,449.2z M127.3,488.4c18.8,0,34.1,15.3,34.1,34.1
	c0,18.9-15.3,34.2-34.1,34.2c-18.9,0-34.2-15.3-34.2-34.2C93.1,503.7,108.4,488.4,127.3,488.4L127.3,488.4z M178.1,621.3H76.4V606
	c0-21,14.7-39.5,35.7-39.5h30.4c21,0,35.7,18.5,35.7,39.5V621.3z M307.2,152c18.9,0,34.1,15.3,34.1,34.2c0,18.8-15.3,34.1-34.1,34.1
	c-18.9,0-34.1-15.3-34.1-34.1C273,167.3,288.3,152,307.2,152L307.2,152z M256.3,285v-15.4c0-20.9,14.7-39.4,35.7-39.4h30.4
	c20.9,0,35.6,18.5,35.6,39.4V285H256.3z M479.3,488.4c18.8,0,34.1,15.3,34.1,34.1c0,18.9-15.3,34.2-34.1,34.2
	c-18.9,0-34.2-15.3-34.2-34.2C445.1,503.7,460.4,488.4,479.3,488.4L479.3,488.4z M530.1,621.3H428.4V606c0-21,14.7-39.5,35.7-39.5
	h30.4c21,0,35.7,18.5,35.7,39.5V621.3z M530.1,621.3"/>
<rect x="13.8" y="112.9" class="st1" width="584.3" height="567.1"/>
</svg>
