<?xml version="1.0" encoding="utf-8"?>
<!-- Generator: Adobe Illustrator 19.2.0, SVG Export Plug-In . SVG Version: 6.00 Build 0)  -->
<svg version="1.1" id="Layer_1" xmlns="http://www.w3.org/2000/svg" xmlns:xlink="http://www.w3.org/1999/xlink" x="0px" y="0px"
	 viewBox="0 0 612 792" style="enable-background:new 0 0 612 792;" xml:space="preserve">
<style type="text/css">
	.st0{fill:#FFFFFF;}
	.st1{fill:none;}
</style>
<path class="st0" d="M382.3,598.8h-306V181.5h306c6.8,0,12.3-5.3,12.3-11.8v-43.3c0-6.5-5.5-11.8-12.3-11.8H18.8
	c-6.8,0-12.3,5.3-12.3,11.8v527.5c0,6.5,5.5,11.8,12.3,11.8h363.5c6.8,0,12.3-5.3,12.3-11.8v-43.3
	C394.6,604.1,389.1,598.8,382.3,598.8L382.3,598.8z M382.3,598.8"/>
<rect x="6.5" y="114.8" class="st1" width="599.1" height="551.7"/>
<path class="st0" d="M598.5,381.9L433.1,223.4c-4.6-4.4-12.7-4.4-17.4,0L376.5,261c-4.8,4.6-4.8,12,0,16.6l74.7,71.6H127.7
	c-6.8,0-12.3,5.3-12.3,11.8v58.3c0,6.5,5.5,11.8,12.3,11.8h323.4l-74.7,71.6c-4.8,4.6-4.8,12.1,0,16.7l39.2,37.6
	c2.3,2.2,5.4,3.5,8.7,3.5c3.2,0,6.4-1.2,8.7-3.5l165.4-158.5c2.3-2.2,3.6-5.2,3.6-8.3C602.1,387.1,600.8,384,598.5,381.9
	L598.5,381.9z M598.5,381.9"/>
</svg>
