<?xml version="1.0" encoding="utf-8"?>
<!-- Generator: Adobe Illustrator 19.2.0, SVG Export Plug-In . SVG Version: 6.00 Build 0)  -->
<svg version="1.1" id="Layer_1" xmlns="http://www.w3.org/2000/svg" xmlns:xlink="http://www.w3.org/1999/xlink" x="0px" y="0px"
	 viewBox="0 0 612 792" style="enable-background:new 0 0 612 792;" xml:space="preserve">
<style type="text/css">
	.st0{display:none;fill:#9A9A9A;}
	.st1{display:none;fill:none;}
	.st2{display:none;fill:#919191;}
	.st3{fill:#FFFFFF;}
	.st4{fill:#DBEBEE;}
	.st5{display:none;fill:#FFFFFF;}
</style>
<path class="st0" d="M479.3,449.2c-30.1,0-57.3,11.8-77.6,30.8l-75-56.2v-85.9c53.3-9.3,93.9-55.7,93.9-111.6
	c0-62.6-50.8-113.4-113.4-113.4c-62.6,0-113.4,50.8-113.4,113.4c0,55.9,40.6,102.3,93.9,111.6v85.6L207,481.4
	c-14.8-14.5-33.7-25-54.7-29.5C73.7,435.1,5,499.8,14.8,577.4c6.4,50.6,47.2,91.4,97.8,97.7c77.6,9.8,142.2-58.9,125.5-137.5
	c-1.8-8.6-4.7-16.7-8.3-24.4l77.2-55.4l71.3,53.5c-7.9,15.4-12.4,32.8-12.4,51.3c0,62.6,50.8,113.4,113.4,113.4
	c62.6,0,113.4-50.8,113.4-113.4C592.7,500,541.9,449.2,479.3,449.2L479.3,449.2z M127.3,488.4c18.8,0,34.1,15.3,34.1,34.1
	c0,18.9-15.3,34.2-34.1,34.2c-18.9,0-34.2-15.3-34.2-34.2C93.1,503.7,108.4,488.4,127.3,488.4L127.3,488.4z M178.1,621.3H76.4V606
	c0-21,14.7-39.5,35.7-39.5h30.4c21,0,35.7,18.5,35.7,39.5V621.3z M307.2,152c18.9,0,34.1,15.3,34.1,34.2c0,18.8-15.3,34.1-34.1,34.1
	c-18.9,0-34.1-15.3-34.1-34.1C273,167.3,288.3,152,307.2,152L307.2,152z M256.3,285v-15.4c0-20.9,14.7-39.4,35.7-39.4h30.4
	c20.9,0,35.6,18.5,35.6,39.4V285H256.3z M479.3,488.4c18.8,0,34.1,15.3,34.1,34.1c0,18.9-15.3,34.2-34.1,34.2
	c-18.9,0-34.2-15.3-34.2-34.2C445.1,503.7,460.4,488.4,479.3,488.4L479.3,488.4z M530.1,621.3H428.4V606c0-21,14.7-39.5,35.7-39.5
	h30.4c21,0,35.7,18.5,35.7,39.5V621.3z M530.1,621.3"/>
<rect x="13.8" y="112.9" class="st1" width="584.3" height="567.1"/>
<path class="st2" d="M18.7,419.1v-46.2c0-27.8,22.7-50.6,50.6-50.6h473.5c27.8,0,50.6,22.7,50.6,50.6v46.2
	c0,27.8-22.7,50.6-50.6,50.6H69.3C41.5,469.6,18.7,446.9,18.7,419.1z"/>
<path class="st2" d="M329.1,683.3h-46.2c-27.8,0-50.6-22.7-50.6-50.6V159.3c0-27.8,22.7-50.6,50.6-50.6h46.2
	c27.8,0,50.6,22.7,50.6,50.6v473.5C379.6,660.5,356.9,683.3,329.1,683.3z"/>
<g>
	<path class="st3" d="M292.5,210.9c-7.2-0.2-15-0.8-17.1-2.8c-4.2-3.8-7.3-11.8-8-21.8c-0.8-9.9-1.1-45.1-36.3-48.1
		c-35.1-3.1-55.4,16.8-86.3,32.5c-30.9,15.7-95.8,47-135.6,55.4c-31.8,6.7,19.4,7.6,46.3,6.1c16.9-7.8,118.5-54.9,137.6-62.5
		c0,0-89.9,45.3-136.5,69c-6.1,4.2-11.6,9-9.3,11.1c3.4,3.1,31.6,5.2,54.3,2.5c14.4-6.1,67.8-29.1,95.6-44.4
		c0,0-55.8,32.6-88.4,46.4c-8.9,5-18.4,11.7-14.9,15.8c4.7,5.6,35.6,3.2,54.1-2.5c12.7-7.7,44.5-27.1,53.4-33.9
		c0.8-0.6,1.2-0.9,1.2-0.9c-0.3,0.3-0.7,0.6-1.2,0.9c-5.4,4.3-29.1,22.8-49.1,36c-5,5.7-9.7,13.1-4.9,16.8
		c7.3,5.6,31.7-3.4,47.2-11.7c7.4-6.1,20-16.9,24.8-23.4c0,0-9.2,13.1-22.7,25.4c-4.7,6.8-11.2,17.8-6.5,21.9
		c5.7,5.1,23.9-1,34.9-8.4c4.1-4.8,10.8-13,14-19.4c0,0-3.8,12.1-11.2,21.6c-1.2,4.4-1.3,9.7,3.9,12c8.4,3.7,17.6-1.4,25.9-9.7
		c2.6-3.8,6.2-9.2,8.7-14c0,0-3.6,9.4-7.2,16.7c-0.5,3.2-0.2,6.7,3.2,8.2c4.7,2,21.1-3.5,31.3-21.6L292.5,210.9z"/>
	<path class="st4" d="M294.2,217.4c0,0-2.8,0-3,0c-3.7-0.1-7.3-0.3-10.9-0.8c-1.1-0.2-2.2-0.3-3.3-0.6c-3.7-0.8-4.8-2.1-5.8-3.2
		c-4.1-4.6-6.8-12.5-7.6-22.1c0-0.5-0.1-1.1-0.1-1.8c-0.7-11.3-2.7-41.5-34.1-44.2c-2.3-0.2-4.7-0.3-6.9-0.3c-2.5,0-5,0.1-7.5,0.4
		c-17.6,1.8-31.8,11.1-47.1,18.8c-0.9,0.5-1.8,0.9-2.7,1.4c-2.4,1.2-4.9,2.4-7.3,3.6c-3.8,1.9-7.6,3.8-11.4,5.6
		c-6.5,3-11.9,5.4-11.9,5.4c0,0.1,5.4-2.1,11.9-4.9c3.8-1.6,7.4-3.4,11.1-5.2c8.4-3.9,16.5-8.3,24.8-12.4c7.7-3.8,15.7-7,24.1-8.8
		c5.3-1.1,10.7-1.7,16.1-1.7c2.2,0,4.5,0.1,6.7,0.3c29.4,2.6,31.2,30.3,32,42.1c0,0.7,0.1,1.3,0.1,1.8c0.5,7.1,2.1,15.5,6.2,21.4
		c4.3,6.1,8.3,6,15.4,6.9c1.1,0.1,11.5,0.6,11.5,0.5C294.2,218.9,294.2,218.1,294.2,217.4z"/>
	<path class="st3" d="M602.8,226.3c-39.7-8.4-104.6-39.7-135.6-55.4c-30.9-15.7-51.2-35.5-86.3-32.5c-35.1,3.1-35.5,38.2-36.3,48.1
		c-0.8,9.9-3.8,17.9-8,21.8c-2.2,2-10.3,2.6-17.6,2.8l-1.6,71.3c10.1,19.4,27.4,25.4,32.2,23.3c3.4-1.5,3.7-5,3.2-8.2
		c-3.6-7.2-7.2-16.7-7.2-16.7c2.5,4.8,6.1,10.2,8.7,14c8.3,8.2,17.6,13.3,25.9,9.7c5.2-2.3,5.1-7.6,3.9-12
		c-7.4-9.5-11.2-21.6-11.2-21.6c3.2,6.4,9.9,14.7,14,19.4c11,7.5,29.2,13.5,34.9,8.4c4.6-4.1-1.8-15.2-6.5-21.9
		c-13.5-12.3-22.7-25.4-22.7-25.4c4.8,6.6,17.4,17.3,24.8,23.4c15.5,8.2,39.9,17.3,47.2,11.7c4.8-3.7,0-11.1-4.9-16.8
		c-20-13.2-43.7-31.7-49.1-36c-0.4-0.3-0.9-0.7-1.2-0.9c0,0,0.4,0.3,1.2,0.9c8.9,6.8,40.7,26.2,53.4,33.9
		c18.5,5.7,49.3,8.1,54.1,2.5c3.5-4.1-6-10.8-14.9-15.8c-32.6-13.8-88.4-46.4-88.4-46.4c27.8,15.3,81.2,38.3,95.6,44.4
		c22.7,2.7,50.9,0.7,54.3-2.5c2.3-2.1-3.2-6.9-9.3-11.1c-46.5-23.7-136.5-69-136.5-69c19.1,7.6,120.7,54.7,137.6,62.5
		C583.4,233.9,634.6,233.1,602.8,226.3z"/>
	<path class="st4" d="M317.8,217.6c0,0,2.8,0,3,0c3.6-0.1,7.3-0.3,10.9-0.8c1.1-0.2,2.2-0.3,3.3-0.6c3.7-0.8,4.8-2.1,5.8-3.2
		c4.1-4.6,6.8-12.5,7.6-22.1c0-0.5,0.1-1.1,0.1-1.8c0.7-11.3,2.7-41.5,34.1-44.2c2.3-0.2,4.7-0.3,6.9-0.3c2.5,0,5,0.1,7.5,0.4
		c17.6,1.8,31.8,11.1,47.1,18.8c0.9,0.5,1.8,0.9,2.7,1.4c2.4,1.2,4.9,2.4,7.3,3.6c3.8,1.9,7.6,3.8,11.4,5.6c6.5,3,11.9,5.4,11.9,5.4
		c0,0.1-5.4-2.1-11.9-4.9c-3.8-1.6-7.4-3.4-11.1-5.2c-8.4-3.9-16.5-8.3-24.8-12.4c-7.7-3.8-15.7-7-24.1-8.8
		c-5.3-1.1-10.7-1.7-16.1-1.7c-2.2,0-4.5,0.1-6.7,0.3c-29.4,2.6-31.2,30.3-32,42.1c0,0.7-0.1,1.3-0.1,1.8
		c-0.5,7.1-2.1,15.5-6.2,21.4c-4.3,6.1-8.3,6-15.4,6.9c-1.1,0.1-11.5,0.6-11.5,0.5C317.8,219.1,317.8,218.4,317.8,217.6z"/>
	<g>
		<g>
			<path class="st5" d="M305.9,256.4c-2.9,0-5.6-0.9-7.9-2.4l5.5,342.3l1.2,4.1l1.3-4.1l7.8-342.3
				C311.5,255.5,308.8,256.4,305.9,256.4z"/>
			<g>
				<path class="st3" d="M289.8,179.5c-0.9,0.7-1.5,2-1.5,3.5c0,2.2,1.4,4,3,4h11.9C297.8,186.3,293.1,183.5,289.8,179.5z"/>
				<path class="st3" d="M321.9,179.5c-3.3,4-8,6.8-13.4,7.5h11.9c1.7,0,3-1.8,3-4C323.4,181.5,322.8,180.2,321.9,179.5z"/>
			</g>
			<circle class="st3" cx="305.8" cy="166.5" r="18.3"/>
		</g>
	</g>
	<g>
		<path class="st3" d="M298.8,457.3c3.3-2.3,6.7-4.7,10-7.1c0.8-0.6,1.6-1.2,2.5-1.7l0.9-39.9c-3.9-1.6-8.8-3.5-14.3-5.5
			L298.8,457.3z"/>
		<path class="st3" d="M308.6,563.7c-2.5-2.6-5.4-5.3-8.3-8.1l0.9,59.6c2-2.9,4.2-5.7,6.4-8.4L308.6,563.7z"/>
		<path class="st3" d="M309.2,539.1l1.5-63.8c-4.3,2.9-8.2,5.5-11.5,8l0.7,46.6C302.9,532.9,306.1,536,309.2,539.1z"/>
		<path class="st3" d="M305,379.3c2.5,1.2,5.1,2.4,7.8,3.6l4.5-199.3c-3.3,2.2-7.2,3.5-11.4,3.5s-8.2-1.3-11.4-3.5l3.1,192.2
			C299.9,377,302.4,378.1,305,379.3z"/>
		<path class="st3" d="M306.6,628.2c-2,2.7-3.7,5.4-5,8l0.7,42.8l1.8,5.9l1.9-5.9l1.2-51.5C307,627.7,306.8,628,306.6,628.2z"/>
	</g>
	<g>
		<path class="st3" d="M301.3,615.2c0.5-0.8,1.1-1.6,1.7-2.3c-1.6-2.2-3.3-4.3-5-6.5c-1.9-2.4-3.8-4.8-5.7-7.2
			c-9.8-13.4-5.6-18.9-3.6-25c1-3.1,7.1-9.7,14-16.4c-2.8-2.7-5.8-5.5-8.7-8c-2.8,2.8-5.4,5.5-7.8,8.1c-16.6,18.1-12,27.1-8.6,35.9
			c2.6,6.9,12.9,15.7,21.4,24.9C299.7,617.6,300.5,616.4,301.3,615.2z"/>
		<path class="st3" d="M288.5,464.8c4.1-3.1,8.9-6.4,13.7-9.9c-9.2-6.5-18.9-13.3-26.4-18.9c-13.2-9.9,3.9-21.8,13.4-26.9
			c2.6-1.4,6.6-3.1,11.3-5c-3.2-1.2-6.7-2.5-10.3-3.8c-4-1.4-8.1-3-12.4-4.5c-2.2,1.2-4.4,2.3-6.5,3.5c-12.3,7-26,18.8-19.8,34.5
			c4.8,12.2,17.4,18.9,28,25.5C282.6,461.1,285.5,463,288.5,464.8z"/>
		<path class="st3" d="M311.5,626.1c-0.4-0.8-0.8-1.5-1.3-2.3c-1.2,1.4-2.4,2.8-3.5,4.2c2.7,3.7,5.1,7.9,6,12.4
			c1.1,5.5-0.9,11.5-2.8,16.5c0.4-0.2,1.1-0.8,1.3-1.1c0.5-0.5,0.9-1.1,1.2-1.7c3.4-6.2,4.4-12.3,2.6-19.1
			C314.2,631.9,313,628.9,311.5,626.1z"/>
		<path class="st3" d="M380.7,349.1c-1.4-12.4-10.2-21.2-12.5-22.7c-2.4-1.5-0.8-3.6-4.6-7.8c-3.7-4.2-13.5-8.8-25.9-8.6
			c-12.4,0.2-15.9,11.3-14.7,11.8c1.2,0.6,1.4,1.7,1.4,1.7c-3-0.5-2.1,3.3,4,7.8c6.1,4.6,17.1,9.9,20.3,9c2.3-0.7,4.7,0.5,6.2,2.5
			c0.6,0.9,1.1,1.8,1.4,2.9c0.2,0.9,0.2,1.8,0.1,2.7c-0.8,4.4-5,7.5-8,9.7c-4.5,3.3-9.3,6-13.8,9.2c-5.4,3.9-15.1,8.4-26.1,13.5
			c7.7,3.6,15.8,7.4,23.6,11.5c5.2-1.9,10.3-3.9,15.2-5.9C368.7,377.8,382.1,361.5,380.7,349.1z M338.3,319.6c-2,0-3.6-0.9-3.6-1.9
			c0-1.1,1.6-1.9,3.6-1.9c2,0,3.6,0.9,3.6,1.9C341.9,318.8,340.3,319.6,338.3,319.6z"/>
		<path class="st3" d="M321.5,468.8c-0.1-0.1-0.3-0.2-0.4-0.3c-1.5,1-3,1.9-4.5,2.9c-3.3,2.1-6.3,4.1-9,6
			c14.2,9.9,22,17.6,22.4,27.6c0.3,8-10.7,19.8-23,32.1c1.1,1.1,2.3,2.2,3.4,3.3c1.8,1.8,3.6,3.6,5.4,5.4c2-1.8,3.8-3.3,5.2-4.5
			c8.5-7.1,23.5-23.3,24.7-36.1C346.9,492.3,334.2,478.4,321.5,468.8z"/>
	</g>
	<path class="st3" d="M338.3,399.3c-22.3-12.8-51.8-23.9-63.1-31.9c-4.5-3.2-9.3-5.9-13.8-9.2c-3.1-2.2-7.3-5.3-8-9.7
		c-0.2-0.9-0.1-1.8,0.1-2.7c0.2-1.1,0.7-2,1.4-2.9c1.5-2,3.9-3.2,6.2-2.5c3.2,1,14.2-4.4,20.3-9c6.1-4.6,7-8.3,4-7.8
		c0,0,0.2-1.1,1.4-1.7c1.2-0.6-2.3-11.6-14.7-11.8c-12.3-0.2-22.2,4.4-25.9,8.6c-3.7,4.2-2.2,6.3-4.6,7.8
		c-2.4,1.5-11.2,10.3-12.5,22.7c-1.4,12.4,12,28.6,33.5,37.4c21.5,8.8,48.6,17.4,58,22.5c9.5,5.2,26.6,17,13.4,26.9
		c-13.2,9.9-33,23.3-45.7,32.8c-12.7,9.5-25.4,23.5-24.2,36.3c1.2,12.8,16.2,29,24.7,36.1c8.5,7.1,30.3,26.9,32.3,33
		c2,6.1,6.3,11.6-3.6,25c-0.7,0.9-1.4,1.8-2.1,2.7c-3.9,5-8,9.8-11.6,15c-4.1,5.9-7.6,12.2-9.8,19.1c-1.1,3.6-1.9,7.4-2.1,11.2
		c-0.1,2-0.1,4,0,6c0.3,3.8,1.3,7.9,3.1,11.3c1.1,2.1,2.3,4.2,2.4,4c0.3-0.3-2.6-8.8-3.1-12.5c-0.8-6.3,0.9-18.1,9.7-29.8
		c8.9-11.6,24.6-23.7,28-32.5c3.4-8.8,8-17.8-8.6-35.9c-16.6-18.1-44.3-40.5-43.8-53.1c0.5-12.6,12.9-21.6,35.2-36.1
		c9.1-5.9,18.6-11.2,27.4-17.5c9.3-6.5,17.9-15,17.4-27.2C359.2,412.4,347.5,404.6,338.3,399.3z M271.4,315.8c2,0,3.6,0.9,3.6,1.9
		c0,1.1-1.6,1.9-3.6,1.9c-2,0-3.6-0.9-3.6-1.9C267.8,316.7,269.4,315.8,271.4,315.8z"/>
</g>
</svg>
